<?xml version="1.0" encoding="utf-8"?>
<!-- Generator: Adobe Illustrator 26.3.1, SVG Export Plug-In . SVG Version: 6.00 Build 0)  -->
<svg version="1.1" id="Camada_1" xmlns="http://www.w3.org/2000/svg" xmlns:xlink="http://www.w3.org/1999/xlink" x="0px" y="0px"
	 viewBox="0 0 1920 1080" style="enable-background:new 0 0 1920 1080;" xml:space="preserve">
<style type="text/css">
	.st0{fill:#FFFFFF;}
</style>
<g>
	<g>
		<path class="st0" d="M1770.4,501.6c7.2-3.8,12.8-9.5,17.8-16c5.5-7.1,7.5-15.8,11.2-23.7c0-6.5,0-13.1,0-19.6
			c-1.6-4.5-0.8-9.4-2.8-13.9c-5.6-12.5-13.6-23-26-29.1c-6.7-3.3-8.6-7.7-8.6-14.9c0.3-57.2,0.1-114.4,0.2-171.6
			c0-22-2.7-17.1,17.1-25.6c6.3-2.7,13.4-4.1,18.5-9.2c0.1-3.6-3.2-3-5-3.7C1685.6,131,1578.4,88,1471.2,44.9c-4.6-1.8-8.4-1.8-13,0
			c-90,36.2-180.1,72.3-270.2,108.5c-18.8,7.6-37.7,15.2-56.8,22.9c1.8,2.3,4,2.5,6,3.3c107,43,214,85.9,320.9,129
			c4.8,1.9,8.8,1.7,13.6-0.2c81-32.5,162-64.9,243.1-97.2c1.8-0.7,3.6-2.6,6-1.3c0.1,0.7,0.2,1.4,0.2,2c0,59.9-0.1,119.8,0.2,179.8
			c0,4.4-2.2,5.3-5.2,6.8c-20.7,10.2-32.5,26.8-33.8,49.7c-1.3,23,8.7,40.8,28.2,53.1c3.8,2.4,4.9,4.1,3.3,8.6
			c-9.9,28.8-19.3,57.7-29,86.5c-1.5,4.3-1.3,6.4,3.6,7.8c8.6,2.4,17.1,5,25.3,8.4c5.6,2.3,7.3,0.6,8.9-4.7
			c4.3-14.1,9.2-28.1,13.9-42.1c1.2-3.7,2.5-7.5,4.3-13c6.6,19.7,12.7,37.3,18.2,55.1c1.6,5.2,3.3,7,8.9,4.7
			c8-3.3,16.3-5.9,24.7-8.2c5.5-1.5,5.6-3.9,4-8.6c-9.7-28.6-19.1-57.3-28.8-85.9C1766.4,505.9,1766.3,503.7,1770.4,501.6z"/>
		<path class="st0" d="M1641.3,282.5c-2.5,1-4.3,1.7-6.1,2.5c-55.2,22.1-110.4,44.3-165.6,66.5c-3.5,1.4-6.3,1.5-9.8,0.1
			c-23.9-9.8-47.9-19.4-71.9-29c-33-13.2-66-26.5-99.7-40c0,18.1-0.2,35.3,0.1,52.5c0.3,14.9,5.8,28,15,39.5
			c16.6,20.8,39,33,63.6,41.5c46.3,16.2,94,18.9,142.4,12.6c32.2-4.2,63.1-12.8,90.6-30.7c20.7-13.5,37.3-30.6,40.5-56.4
			C1642.8,322.2,1640.9,302.6,1641.3,282.5z"/>
	</g>
	<g>
		<path class="st0" d="M396.5,588.4C396.2,675.7,337.9,740,254.2,740c-82,0-144.3-61.6-144.3-145.1c0-83.4,60.7-145.6,143.2-145.6
			c69.2,0,126.7,43.8,139.7,106.1h-62.1c-11.9-29.9-41.4-48.6-76.5-48.6c-49.4,0-83.2,36-83.2,88.1c0,51.6,33,87.5,83.2,87.5
			c36,0,67.2-19.1,77.5-47.8h-83.5v-46.2H396.5z"/>
		<path class="st0" d="M647.8,625.7c0,5.7-0.4,11.4-1.1,17H484.1c5.1,29.3,24.3,45.5,52.5,45.5c20.2,0,36.8-9.6,45.6-24.9h61.1
			c-15.6,46.9-56.8,76.7-106.7,76.7c-63.5,0-111.5-49.1-111.5-113.5c0-64.7,47.7-113.5,111.5-113.5
			C602.6,512.9,647.8,563.7,647.8,625.7L647.8,625.7z M485.6,603h104.2c-8.2-26.3-27.1-40.5-53.2-40.5
			C510.7,562.5,492.3,577.6,485.6,603z"/>
		<path class="st0" d="M765.5,739.9c-53.9,0-90-30.8-90.3-76.9h56.7c0.3,19.1,14.9,28.7,35.8,28.7c16.1,0,30.6-7.3,30.6-21.7
			c0-14.7-18.6-19.1-41.4-22.9c-34.3-5.7-78-14.9-78-65.6c0-40.7,34.6-68.7,86.5-68.7c51.9,0,85.9,28.9,86.2,71.8h-55.1
			c-0.2-17.1-12.2-25.5-32.5-25.5c-18.1,0-28.8,8.3-28.8,20.6c0,14.3,18.3,17.7,40.7,21.7c35.1,6.3,79.8,13.7,79.8,66.1
			C855.6,711.4,819.8,740,765.5,739.9L765.5,739.9z"/>
		<path class="st0" d="M1027.6,682.1v51.7h-41.3c-47.3,0-76.3-29.1-76.3-76.7v-91.5h-38.9v-12.6l84.9-90.2h11.1v56.1h59.3v46.7
			h-58.3v83.8c0,20.8,11.9,32.7,33.1,32.7H1027.6z"/>
		<path class="st0" d="M1284.1,518.6v214.9h-45.6l-5-19.2c-18.5,16.2-42.5,25.6-69.6,25.6c-64.7,0-112.7-48.8-112.7-113.9
			c0-64.8,48.1-113.2,112.7-113.2c27.6,0,52,9.7,70.6,26.3l6.2-20.5L1284.1,518.6z M1131.4,493.5h-32.1v-4.2c0-33,17-54.1,45.9-54.1
			c16,0,26.2,6.6,34.8,13c6.4,4.8,12.5,8.8,19.8,8.8c8.4,0,14.2-6.6,14.2-16.5v-3.6h32.1v4.4c0,33.4-17.4,54.1-45.6,54.1
			c-16.2,0-27.6-7.7-37.3-13.4c-6.8-4-12.3-7.6-17.7-7.6c-7.7,0-14.3,6.6-14.3,16.1L1131.4,493.5z M1227.1,626.1
			c0-33.8-24.7-58.9-58.5-58.9c-33.8,0-58.6,25.2-58.6,58.9c0,33.7,24.8,58.9,58.6,58.9C1202.4,685,1227.1,659.8,1227.1,626.1z"/>
		<path class="st0" d="M1325.8,626.4c0-65.2,49.6-113.5,116.2-113.5c66.2,0,116.2,48.4,116.2,113.5c0,64.8-49.9,113.5-116.2,113.5
			C1375.4,740,1325.8,691.2,1325.8,626.4z M1499.2,626.4c0-34.8-23.8-58.9-57.3-58.9s-57.3,24.1-57.3,58.9
			c0,34.8,23.8,58.9,57.3,58.9S1499.2,661.2,1499.2,626.4z"/>
	</g>
	<g>
		<path class="st0" d="M820.3,898H701.5c1.1,32.5,24.8,56.4,56.3,56.4c22.4,0,40.3-11.7,50.5-31.3h8c-12,25.1-32.5,38.7-58.5,38.7
			c-36.3,0-63.8-28.5-63.8-66.2c0-37.4,27.5-65.9,63.8-65.9c36.6,0,62.5,28.5,62.5,65.2C820.4,895.8,820.3,897,820.3,898z
			 M757.8,836.9c-30.8,0-54.1,22.7-56.2,54H813C811,858.7,787.7,836.9,757.8,836.9L757.8,836.9z"/>
		<path class="st0" d="M842.6,924.7h7.4c2,19,17.2,30,41.2,30c24.3,0,40.3-11.4,40.3-29c0-22-20.7-25.9-41.7-29.4
			c-22-3.8-44.7-7.7-44.7-32.7c0-20.2,18.3-33.9,45.1-33.9c27,0,44.2,13.6,45.5,35.6h-7.2c-1.2-18-15.3-28.6-38.3-28.6
			c-22.7,0-37.6,10.7-37.6,26.7c0,19.1,18.4,22.1,39.1,25.6c22.3,3.7,47.5,8.2,47.5,36.4c0,21.9-19.2,36.4-48,36.4
			C862.4,961.8,844.6,947.7,842.6,924.7z"/>
		<path class="st0" d="M962.4,895.7c0-37.9,28.1-66.1,65.3-66.1c28.1,0,50.2,15.9,59.2,40h-7.7c-8.9-20.4-28.3-32.7-51.5-32.7
			c-33,0-57.6,25.3-57.6,58.7c0,33.3,24.9,58.7,57.6,58.7c23.1,0,42.3-12.1,51.8-33h7.8c-9.5,24.8-32,40.4-59.6,40.4
			C990.7,961.8,962.4,933.3,962.4,895.7z"/>
		<path class="st0" d="M1108.2,895.7c0-38,28.4-66.1,66.2-66.1c37.9,0,66.2,28.3,66.2,66.1c0,37.8-28.3,66.1-66.2,66.1
			C1136.6,961.8,1108.2,933.5,1108.2,895.7z M1232.9,895.7c0-33.6-24.9-58.7-58.5-58.7c-33.6,0-58.5,24.9-58.5,58.7
			c0,33.6,25.1,58.7,58.5,58.7C1208,954.4,1232.9,929.3,1232.9,895.7z"/>
		<path class="st0" d="M1275.6,787.2h7.5v172.1h-7.5V787.2z"/>
		<path class="st0" d="M1448.6,832.1v127.2h-6.6l-0.8-33.2c-10.2,21.5-31.4,35.7-58,35.7c-37,0-64.9-28.5-64.9-66.1
			c0-37.6,27.9-66.1,64.9-66.1c26.7,0,47.9,14.2,58.1,35.7l1-33.2L1448.6,832.1z M1440.9,895.7c0-33.9-24.2-58.7-57.4-58.7
			c-32.9,0-57.6,25.4-57.6,58.7c0,33.5,24.8,58.7,57.6,58.7C1416.7,954.4,1440.9,929.6,1440.9,895.7z"/>
		<path class="st0" d="M1558.2,831.7v7.2h-11.4c-26.6,0-44.3,20.6-44.3,48.7v71.6h-7.5V832.1h5.9l1.2,28.8
			c7.9-17.9,23.7-29.2,45.2-29.2H1558.2z"/>
	</g>
</g>
</svg>
