<?xml version="1.0" encoding="utf-8"?>
<!-- Generator: Adobe Illustrator 24.2.1, SVG Export Plug-In . SVG Version: 6.00 Build 0)  -->
<svg version="1.1" id="Camada_1" xmlns="http://www.w3.org/2000/svg" xmlns:xlink="http://www.w3.org/1999/xlink" x="0px" y="0px"
	 viewBox="0 0 1920 1080" style="enable-background:new 0 0 1920 1080;" xml:space="preserve">
<style type="text/css">
	.st0{fill:#FFFFFF;}
</style>
<g>
	<g>
		<path class="st0" d="M924,420.2c-2.5,8.1-4.7,16.3-7.6,24.1c-0.9,2.5-3.4,0.1-5-0.3c-31.4-9.4-62.6-18.9-94-28.4
			c-19.8-6.1-39.7-12.1-59.6-18.3c-3.6-1.1-6.2-0.6-9.4,1.1c-19.2,11.3-38.6,22.2-57.8,33.5c-3.6,2.2-5.5,2.4-7.6-1.8
			c-2.7-5.7-6.1-11-9.4-16.4c-1.5-2.5-1.4-3.7,1.4-5.3c24-13.7,48-27.6,72-41.5c2-1.3,3.8-0.9,5.8-0.3
			c55.8,17,111.5,33.9,167.4,50.8C921.9,418,924,417.9,924,420.2z"/>
		<path class="st0" d="M754,346.8c-1.9-0.1-3.3,1.3-5,2.2c-19.4,11.2-39,22.4-58.3,33.7c-3.8,2.3-5.6,1.9-7.5-2
			c-2.7-5.5-6-10.7-9.1-15.7c-1.5-2.5-2-3.9,1.3-5.8c23.9-13.6,47.6-27.4,71.4-41.3c2.2-1.3,4.1-1.3,6.5-0.5
			c55.5,17,111.1,33.9,166.7,50.7c3.3,1,4.6,1.9,3.2,5.5c-2.2,5.5-3.9,11-5.1,16.9c-1,4.8-2.7,5.7-7.5,4.3
			c-50.3-15.5-100.7-30.7-151-46.1C757.7,347.9,755.9,347.4,754,346.8z"/>
		<path class="st0" d="M953.5,87.8c-2.2,0.1-2.4-1.7-3-2.8c-3.4-5.8-6.6-11.7-10.2-17.4c-1.5-2.5-1.4-3.8,1.3-5.3
			c24-13.7,48-27.7,72-41.5c2-1.3,3.8-0.9,5.8-0.3c55.8,17,111.5,33.9,167.4,50.7c3,0.9,3.9,2,2.7,5.2c-2,5.7-3.9,11.6-5.2,17.5
			c-1,4.6-2.7,5.3-7.2,3.9c-50.5-15.5-101.1-30.7-151.6-46.4c-4.4-1.4-7.7-0.9-11.7,1.4c-18.8,11-37.7,21.8-56.6,32.8
			C956,86.6,954.7,87.2,953.5,87.8z"/>
		<path class="st0" d="M923.8,173.3c-2.4,7.7-4.7,15.5-7.2,23c-1.1,3.3-3.6,1-5.2,0.5c-44.2-13.3-88.4-26.8-132.6-40.1
			c-8.6-2.7-17.7-7.6-25.9-6.7c-8,0.9-15.5,7.9-23.1,12.3c-13.1,7.5-26.3,15-39.2,22.7c-3.9,2.3-5.6,1.7-7.5-2.2
			c-2.5-5.2-5.6-10.3-8.8-15.2c-1.9-3-2.2-4.6,1.5-6.7c23.4-13.2,46.6-26.8,69.8-40.3c2.5-1.5,4.8-2,7.6-1.1
			c55.6,16.9,111.2,33.8,166.9,50.8C921.7,170.6,924.6,170.2,923.8,173.3z"/>
		<path class="st0" d="M751.4,217.9c12.8,3.9,25.7,7.7,38.5,11.6c42.9,13.1,85.8,26.2,128.8,39c4.6,1.4,6.1,2.9,4.1,7.7
			c-2.9,6.7-3.7,14.2-7.1,20.7c-6.9-2-13.7-3.9-20.6-6.1c-45.1-13.7-90.3-27.4-135.4-41.4c-4.8-1.5-8.6-0.9-13,1.7
			c-18.8,11.2-37.8,21.8-56.6,32.9c-3.2,1.8-4.8,2.3-6.6-1.5c-1.5-3.7-3.9-7-6-10.4c-5.7-10-5.7-10,4.4-15.9
			c21-12.1,41.8-24.1,62.7-36.1C746.9,218.9,748.7,217.1,751.4,217.9z"/>
		<path class="st0" d="M1020.6,248.1c-2.5-0.1-3.9,1.3-5.6,2.3c-18.5,10.7-37.1,21.3-55.6,32.1c-7,4.1-7,4.1-11-3.2
			c-1.9-3.3-3.7-6.6-5.6-9.9c-4.2-7.2-4.2-7.2,2.8-11.3c21.8-12.6,43.7-25.1,65.4-37.8c3.6-2,6.6-2.5,10.5-1.3
			c54.6,16.8,109.2,33.3,164,49.7c4.4,1.4,5.6,2.8,3.9,7.2c-2,5.2-3.6,10.8-5,16.3c-1,4.1-2.5,5.1-6.9,3.7
			c-29.1-9.1-58.2-17.8-87.2-26.7c-21.8-6.6-43.8-13.2-65.7-19.9C1022.9,248.7,1021.5,248.4,1020.6,248.1z"/>
		<path class="st0" d="M1019.6,396.2c-1.5,0.8-3.2,1.7-4.8,2.5c-19.3,11.2-38.6,22.1-57.8,33.5c-3.8,2.3-5.6,1.8-7.5-2.2
			c-2.7-5.5-5.8-10.7-9.1-15.9c-1.7-2.7-1.8-4.1,1.4-5.8c23.9-13.6,47.6-27.4,71.4-41.3c1.9-1.1,3.6-1.3,5.8-0.6
			c56,17,111.9,34,167.9,50.9c2.7,0.8,3.7,1.7,2.5,4.7c-2,5.7-3.8,11.6-5.2,17.4c-1,4.4-2.4,5.8-7.5,4.3
			c-50.4-15.6-101.1-30.9-151.6-46.2C1023.5,397.2,1021.6,396.7,1019.6,396.2z"/>
		<path class="st0" d="M751,465c15,4.4,29.6,8.9,44.3,13.3c41.1,12.6,82.3,25.1,123.4,37.5c4.8,1.4,5.8,3.2,3.9,7.6
			c-2,4.8-3.7,9.9-4.7,15c-1,4.8-2.5,5.8-7.5,4.3c-50.5-15.5-101.2-30.7-151.8-46.2c-3.9-1.3-7-1-10.5,1.1
			c-19.2,11.3-38.6,22.2-57.8,33.5c-3.6,2.2-5.2,1.7-7-2c-2.9-5.6-6.1-11-9.5-16.4c-1.9-2.9-1.1-4.2,1.7-5.7
			c23.7-13.6,47.4-27.2,71-40.9C748.1,465.5,749.3,464.4,751,465z"/>
		<path class="st0" d="M1018.9,119.3c13.3,4.1,28.1,8.4,42.7,12.8c41.1,12.6,82.2,25.1,123.4,37.5c4.7,1.4,6,2.8,4.2,7.5
			c-2,5.1-3.6,10.3-4.8,15.6c-1,4.4-2.5,5.5-7.2,3.9c-41-12.7-82.3-25-123.3-37.5c-9.8-2.9-19.7-5.8-29.5-9.1
			c-3.6-1.1-6.3-0.6-9.4,1.3c-19.2,11.3-38.5,22.2-57.7,33.5c-3.4,2-5.5,2.5-7.5-1.8c-2.5-5.5-5.8-10.7-9.1-15.7
			c-2.2-3.3-1.4-4.7,2-6.6c23.4-13.2,46.6-26.8,69.8-40.3C1014,119.6,1015.5,118.2,1018.9,119.3z"/>
		<path class="st0" d="M1020.3,346.8c-1.9-0.1-3.4,1.3-5,2.3c-19.3,11-38.7,22-57.8,33.4c-4.6,2.8-6.2,1.7-8.3-2.4
			c-2.7-5.2-5.7-10.3-8.8-15.2c-1.7-2.7-1.7-4.1,1.4-5.7c23.9-13.6,47.6-27.4,71.4-41.3c1.9-1.1,3.7-1.3,5.8-0.6
			c56,17.1,111.9,34,167.9,50.9c2.9,0.9,3.6,1.9,2.5,4.8c-2,6-3.9,11.9-5.3,18c-1,4.2-2.7,5-6.7,3.7
			c-37.8-11.7-75.8-23.1-113.8-34.7c-13.2-4.1-26.5-8-39.7-12.1C1022.8,347.5,1021.6,347.2,1020.3,346.8z"/>
		<path class="st0" d="M953,533.2c-1.4,0-1.7-1.3-2.2-2c-3.7-6.1-7-12.4-10.8-18.5c-1.8-2.8-0.9-3.9,1.7-5.3
			c23.9-13.7,47.6-27.4,71.4-41.3c2.5-1.5,4.8-1,7.1-0.3c55.1,16.8,110.4,33.5,165.5,50.3c3.6,1,5.1,2.2,3.6,6.3
			c-2.2,5.5-3.7,11.2-5.1,16.9c-1,3.9-2.3,5.1-6.9,3.7c-50.7-15.6-101.5-30.9-152.3-46.4c-4.3-1.3-7.4-0.8-11,1.4
			c-18.8,11-37.7,22-56.6,32.8C956,531.7,954.4,532.4,953,533.2z"/>
		<path class="st0" d="M923.8,222.6c-2.4,7.9-4.6,15.5-7.4,23c-1.1,3.3-3.9,0.9-5.8,0.3c-38.6-11.6-77.1-23.4-115.7-35.1
			c-12.2-3.7-24.5-7.2-36.7-11.2c-3.8-1.3-6.6-0.9-10,1.1C729,212,709.6,223,690.4,234.3c-3.9,2.3-5.5,1.8-7.4-2.2
			c-2.7-5.5-6-10.7-9.1-15.9c-1.5-2.5-2-4.1,1.1-5.8c23.9-13.6,47.8-27.3,71.5-41.1c2.5-1.5,4.7-1,7.2-0.3
			c55.2,16.8,110.5,33.5,165.6,50.3C921.3,220,924.3,219.4,923.8,222.6z"/>
		<path class="st0" d="M687,335.2c-1.7,0.1-1.9-1-2.4-1.9c-3.7-6.3-7.2-12.8-11-19c-1.4-2.3-0.8-3.2,1.3-4.3
			c24.3-13.8,48.4-27.8,72.5-41.8c2.2-1.3,3.8-0.9,6-0.3c55.5,16.9,111.1,33.8,166.7,50.5c3.3,1,4.4,1.8,3,5.5
			c-2.2,5.8-3.9,11.9-5.5,18c-1,4.2-3,4.2-6.6,3.2c-50.3-15.4-100.7-30.6-151-46.1c-5.1-1.5-8.9-1.1-13.5,1.7
			c-18.5,11-37.3,21.7-56.1,32.5C689.4,333.9,688.1,334.6,687,335.2z"/>
		<path class="st0" d="M753.3,445.6c-1.4,0.8-3,1.7-4.7,2.5c-19.3,11.2-38.6,22.2-57.8,33.5c-3.8,2.3-5.6,1.9-7.5-2.2
			c-2.7-5.5-6-10.7-9.1-15.9c-1.5-2.5-1.9-3.9,1.3-5.8c23.9-13.6,47.8-27.4,71.5-41.3c2.3-1.4,4.3-1,6.5-0.4
			c55.6,16.9,111.2,33.8,166.9,50.5c3.6,1,4.2,2.5,2.7,5.7c-1,2.3-1.4,4.8-2.3,7.2c-1.8,4.8-1.4,12.4-5.3,14.1
			c-3.8,1.5-9.8-2-14.9-3.6c-47.6-14.5-95.1-29-142.7-43.4C756.4,446.3,755,446.1,753.3,445.6z"/>
		<path class="st0" d="M953.2,137.5c-1.8-0.1-2-1.5-2.5-2.5c-3.6-6-6.7-12.1-10.4-17.9c-1.8-2.8-0.8-3.8,1.7-5.2
			c23.9-13.7,47.6-27.4,71.4-41.3c2.3-1.4,4.2-1.1,6.5-0.4c55.6,16.9,111.1,33.8,166.7,50.5c3.3,1,4.3,2,3,5.6
			c-2.2,5.7-3.8,11.6-5.2,17.4c-1,3.9-2.4,5.1-6.7,3.7c-50.7-15.6-101.5-30.9-152.3-46.4c-4.2-1.3-7.4-0.9-11,1.4
			c-18.8,11-37.7,21.8-56.6,32.8C956.1,136,954.6,136.7,953.2,137.5z"/>
		<path class="st0" d="M1020.7,297.5c-2.5-0.3-3.9,1.1-5.5,2.2c-19.3,11-38.6,22-57.8,33.4c-4.4,2.7-6.2,1.8-8.3-2.4
			c-2.7-5.2-5.7-10.3-8.8-15.2c-1.7-2.7-1.8-4.1,1.3-5.8c23.9-13.6,47.6-27.4,71.4-41.1c2.3-1.3,4.2-1.1,6.5-0.4
			c55.4,16.9,110.7,33.7,166.1,50.3c4.1,1.1,5,2.5,3.4,6.3c-2,5.5-3.8,11.2-5.1,16.9c-1,4.2-2.8,5-6.9,3.7
			c-32-9.9-64.1-19.6-96.3-29.3c-19-5.8-38.1-11.6-57.1-17.3C1022.8,298.1,1021.6,297.8,1020.7,297.5z"/>
		<path class="st0" d="M1190.4,469.3c-2.5,8.4-4.8,16-7.2,23.6c-1.1,3.4-3.4,1.1-5.1,0.6c-41.4-12.4-82.7-25-124.1-37.6
			c-9.7-2.9-19.3-5.7-28.8-8.8c-3.8-1.3-7-1-10.5,1c-19.2,11.3-38.5,22.2-57.7,33.5c-3.4,2-5.2,1.9-7.1-1.8
			c-2.8-5.6-6.1-11-9.4-16.4c-1.8-2.8-1.4-4.1,1.5-5.7c23.7-13.5,47.4-27.2,70.9-40.9c2.4-1.4,4.6-1.4,7.1-0.6
			c55.6,16.9,111.1,33.8,166.7,50.7C1188,467.4,1190.6,467,1190.4,469.3z"/>
		<path class="st0" d="M1020.3,198.6c-2.4-0.1-4.1,1.4-5.8,2.4c-19.3,11-38.6,22.1-57.8,33.4c-3.3,1.9-5.1,2-7-1.8
			c-2.8-5.6-6.1-11-9.4-16.4c-1.8-2.8-1.7-4.1,1.4-5.8c23.7-13.5,47.4-27.2,71-40.9c2.5-1.4,4.7-1.4,7.1-0.6
			c55.4,16.9,110.9,33.7,166.2,50.4c3.8,1.1,4.4,2.4,3,6.1c-2,5.7-3.8,11.6-5.2,17.5c-1,4.1-2.8,4.4-6.6,3.3
			c-42.9-13.2-85.8-26.2-128.9-39.2c-8.3-2.5-16.5-5-24.6-7.5C1022.8,199.2,1021.5,198.8,1020.3,198.6z"/>
		<path class="st0" d="M1248.2,639.5c-20.2,0.3-40.4,0.1-60.6,0.1c-2.7,0-4.8,0.3-4.7-3.7c0.6-21.7-2.7-43.8,6.6-64.6
			c1.9-4.2-0.4-4.8-3.6-5.7c-55.2-16.8-110.5-33.4-165.7-50.3c-2.8-0.9-5.1-0.8-7.7,0.8c-23.4,13.6-46.9,27.2-70.5,40.5
			c-3.4,1.9-3,3.4-1.4,6.3c2.2,3.8,5.6,7.1,5.7,11.8c0.1,20.4,0,40.9,0.1,61.2c0,3.2-1.3,3.8-4.2,3.8c-7.4-0.1-14.7-0.1-22.1,0
			c-2.7,0-3.8-0.6-3.7-3.6c0.5-21.7-2.7-43.8,6.6-64.6c1.8-3.9,0.1-5-3.2-6c-55.2-16.6-110.5-33.4-165.7-50.3
			c-3-0.9-5.6-0.8-8.4,0.9c-23.1,13.5-46.1,26.8-69.3,40c-3.4,2-4.7,3.6-1.9,7c4.8,6,5.8,13,5.6,20.7c-0.4,16.4-0.4,32.9,0,49.3
			c0.1,5.1-0.9,7-6.3,6.7c-9.4-0.5-18.9,0.1-28.4-0.3c-5.2-0.3-7.5,0.6-7,6.6c0.6,6.7,0.1,13.5,0.1,20.2c205.5,0,411.1,0,616.6,0
			c0-6.7-0.5-13.5,0.1-20.2C1255.8,640.3,1253.4,639.5,1248.2,639.5z M875.7,607.7c-0.4,9-0.3,18,0,27c0.1,3.9-1.3,5-5.1,4.8
			c-12.6-0.3-25.3-0.1-37.8-0.1c-12.6,0-25.3-0.1-37.8,0.1c-3.6,0-5.2-0.5-5.1-4.7c0.3-16,0.3-32,0-47.9c0-3.8,0.8-4.4,4.6-3.6
			c25.4,6.3,50.9,12.3,76.5,18.3C874.3,602.8,875.8,603.9,875.7,607.7z M1136.8,639.7c-12.6-0.3-25.3-0.1-37.8-0.1
			c-12.4,0-24.8-0.1-37.2,0.1c-3.8,0-5.6-0.4-5.5-5c0.3-15.7,0.3-31.5,0-47.4c0-4.3,1-4.7,5-3.7c25.3,6.2,50.5,12.2,75.9,18.2
			c3.4,0.8,4.8,2.2,4.7,5.8c-0.3,9-0.3,18,0,27.2C1142,639,1140.6,639.9,1136.8,639.7z"/>
	</g>
	<g>
		<path class="st0" d="M262.9,902.9h-68.1c-9.1-30.6-54.4-26.9-54.4,11.4c0.3,38.6,46.2,41.8,54.6,10.4h67.8
			C252.3,1040.4,70.3,1038,69.8,914.3C70.3,790.4,251.3,786.9,262.9,902.9z"/>
		<path class="st0" d="M471.9,913.6c-0.5,126.1-197.4,127.4-197.9,0C274.5,785.7,471.2,785.9,471.9,913.6z M400.5,913.3
			c-0.3-42.5-55.9-42.5-56.1,0C344.7,955.6,400.2,955.3,400.5,913.3z"/>
		<path class="st0" d="M555.5,973.9v31.6h-71.2V822.7h59.6l50.2,71.8l-4.4-38.4v-33.4h70.7v182.7h-59.6l-50.7-72L555.5,973.9z"/>
		<path class="st0" d="M760.3,822.7c53.5,0,102.9,22,102.9,91.6c0,69.7-49.7,91.1-102.9,91.1h-85.3V822.7H760.3z M760.3,949.6
			c20.8,0,31.6-17.5,31.6-34.9c0-18-10.4-36.1-31.6-36.1h-14.4v71H760.3z"/>
		<path class="st0" d="M1069.9,913.6c-0.5,126.1-197.4,127.4-197.9,0C872.5,785.7,1069.2,785.9,1069.9,913.6z M998.5,913.3
			c-0.3-42.5-55.9-42.5-56.1,0C942.7,955.6,998.2,955.3,998.5,913.3z"/>
		<path class="st0" d="M1148.6,964.7v40.8h-70.5V822.7c22.5,0,46.5,0,69,0l36.6,52.2l36.6-52.2c22.2,0,46.5,0,68.7,0v182.7h-70.2
			v-40.8l5-42.3l-27.4,42.3h-25l-27.4-42.3L1148.6,964.7z"/>
		<path class="st0" d="M1495.8,913.6c-0.5,126.1-197.4,127.4-197.9,0C1298.5,785.7,1495.3,785.9,1495.8,913.6z M1424.6,913.3
			c-0.3-42.5-55.9-42.5-56.1,0C1368.7,955.6,1424.3,955.3,1424.6,913.3z"/>
		<path class="st0" d="M1621.7,822.7c27.2,0,48.8,23,48,50.2c-0.3,14.6-8.1,28.2-22.5,33.1c21.7,8.4,33.1,22.5,31.9,46.5
			c-1.3,31.4-25.8,53-57.9,53h-114.8V822.7H1621.7z M1577.5,890.6h13.3c12.3,0,13.1-19,0-19h-13.3V890.6z M1577.5,955.3h17.8
			c9.1,0,13.1-5.7,13.1-11.4s-3.7-11.4-13.1-11.4h-17.8V955.3z"/>
		<path class="st0" d="M1823.7,1006.3v50.2H1689v-50.2H1823.7z"/>
	</g>
</g>
</svg>
